<mxfile host="app.diagrams.net" agent="Mozilla/5.0 (Windows NT 10.0; Win64; x64) AppleWebKit/537.36 (KHTML, like Gecko) Chrome/130.0.0.0 Safari/537.36" version="24.8.3">
  <diagram name="Страница — 1" id="mZ9Ld-YHmVsVCCT3c4h3">
    <mxGraphModel dx="472" dy="795" grid="0" gridSize="10" guides="1" tooltips="1" connect="1" arrows="1" fold="1" page="0" pageScale="1" pageWidth="827" pageHeight="1169" math="0" shadow="0">
      <root>
        <mxCell id="0" />
        <mxCell id="1" parent="0" />
        <mxCell id="bgLeXz09wmB_Qhjov4p5-1" value="" style="shape=folder;fontStyle=1;tabWidth=110;tabHeight=30;tabPosition=left;html=1;boundedLbl=1;labelInHeader=1;container=1;collapsible=0;whiteSpace=wrap;" vertex="1" parent="1">
          <mxGeometry x="147" y="501" width="199" height="100" as="geometry" />
        </mxCell>
        <mxCell id="bgLeXz09wmB_Qhjov4p5-2" value="&lt;span style=&quot;font-size: 15px;&quot;&gt;&lt;b&gt;Основные сущности&lt;/b&gt;&lt;/span&gt;" style="html=1;strokeColor=none;resizeWidth=1;resizeHeight=1;fillColor=none;part=1;connectable=0;allowArrows=0;deletable=0;whiteSpace=wrap;" vertex="1" parent="bgLeXz09wmB_Qhjov4p5-1">
          <mxGeometry width="199" height="70" relative="1" as="geometry">
            <mxPoint y="30" as="offset" />
          </mxGeometry>
        </mxCell>
        <mxCell id="bgLeXz09wmB_Qhjov4p5-5" value="" style="shape=folder;fontStyle=1;tabWidth=110;tabHeight=30;tabPosition=left;html=1;boundedLbl=1;labelInHeader=1;container=1;collapsible=0;whiteSpace=wrap;" vertex="1" parent="1">
          <mxGeometry x="145" y="359" width="199" height="100" as="geometry" />
        </mxCell>
        <mxCell id="bgLeXz09wmB_Qhjov4p5-6" value="&lt;b&gt;&lt;font style=&quot;font-size: 15px;&quot;&gt;Вспомогательные элементы&lt;/font&gt;&lt;/b&gt;" style="html=1;strokeColor=none;resizeWidth=1;resizeHeight=1;fillColor=none;part=1;connectable=0;allowArrows=0;deletable=0;whiteSpace=wrap;" vertex="1" parent="bgLeXz09wmB_Qhjov4p5-5">
          <mxGeometry width="199" height="70" relative="1" as="geometry">
            <mxPoint y="30" as="offset" />
          </mxGeometry>
        </mxCell>
        <mxCell id="bgLeXz09wmB_Qhjov4p5-10" style="edgeStyle=none;curved=1;rounded=0;orthogonalLoop=1;jettySize=auto;html=1;entryX=0.492;entryY=0.01;entryDx=0;entryDy=0;entryPerimeter=0;fontSize=12;startSize=8;endSize=8;" edge="1" parent="1" source="bgLeXz09wmB_Qhjov4p5-5" target="bgLeXz09wmB_Qhjov4p5-1">
          <mxGeometry relative="1" as="geometry" />
        </mxCell>
      </root>
    </mxGraphModel>
  </diagram>
</mxfile>
